PathFileType	4	(X/Y/Z)	S01_0013_Gait_markers.trc
DataRate	CameraRate	NumFrames	NumMarkers	Units	OrigDataRate	OrigDataStartFrame	OrigNumFrames
250.000000	250.000000	4	54	mm	250.000000	43	349
Frame#	Time	HEAD_ANT			R_HEAD			L_HEAD			C7			R_BACK			L_BACK			STERNUM			R_ACROMION			R_HUM_PROX			R_HUM_ANT			R_HUM_POST			R_ELBOW_LAT			R_ELBOW_MED			R_FOREARM			R_WIRST_LAT			R_WRITS_MED			R_HAND			L_ACROMION			L_HUM_PROX			L_HUM_ANT			L_HUM_POST			L_ELBOW_LAT			L_ELBOW_MED			L_FOREARM			L_WRIST_LAT			L_WIRST_MED			L_HAND			R_ILIAC			SACRUM			L_ILIAC			R_GTROCH			R_THIGH__1			R_THIGH_2			R_THIGH_3			R_THIGH_4			R_SHANK_1			R_SHANK_2			R_SHANK_3			R_SHANK_4			R_HEEL			R_FOOT_LAT			R_FOOT_MED			L_GTROCH			L_THIGH_1			L_THIGH_2			L_THIGH_3			L_THIGH_4			L_SHANK_1			L_SHANK_2			L_SHANK_3			L_SHANK_4			L_HEEL			L_FOOT_LAT			L_FOOT_MED			
		X1	Y1	Z1	X2	Y2	Z2	X3	Y3	Z3	X4	Y4	Z4	X5	Y5	Z5	X6	Y6	Z6	X7	Y7	Z7	X8	Y8	Z8	X9	Y9	Z9	X10	Y10	Z10	X11	Y11	Z11	X12	Y12	Z12	X13	Y13	Z13	X14	Y14	Z14	X15	Y15	Z15	X16	Y16	Z16	X17	Y17	Z17	X18	Y18	Z18	X19	Y19	Z19	X20	Y20	Z20	X21	Y21	Z21	X22	Y22	Z22	X23	Y23	Z23	X24	Y24	Z24	X25	Y25	Z25	X26	Y26	Z26	X27	Y27	Z27	X28	Y28	Z28	X29	Y29	Z29	X30	Y30	Z30	X31	Y31	Z31	X32	Y32	Z32	X33	Y33	Z33	X34	Y34	Z34	X35	Y35	Z35	X36	Y36	Z36	X37	Y37	Z37	X38	Y38	Z38	X39	Y39	Z39	X40	Y40	Z40	X41	Y41	Z41	X42	Y42	Z42	X43	Y43	Z43	X44	Y44	Z44	X45	Y45	Z45	X46	Y46	Z46	X47	Y47	Z47	X48	Y48	Z48	X49	Y49	Z49	X50	Y50	Z50	X51	Y51	Z51	X52	Y52	Z52	X53	Y53	Z53	X54	Y54	Z54	

44	0.172	342.4267578125	1713.581176757812	-279.3718872070309	284.1936645507812	1657.049560546875	-205.2815704345699	283.8556213378906	1670.573120117188	-353.2541198730465	147.984619140625	1495.009033203125	-292.9918518066403	71.91568756103516	1296.154418945312	-236.6264801025388	75.26884460449219	1304.874755859375	-374.4327392578122	323.4022827148438	1330.949829101562	-293.1993103027341	219.8581848144531	1439.64892578125	-120.2603912353512	166.5964813232422	1279.095825195312	-40.04861450195284	222.5940856933594	1190.665649414062	-31.01109504699681	101.4570770263672	1198.717651367188	-36.24490737915013	141.3531341552734	1090.451049804688	-27.73062133789038	133.5966491699219	1087.251098632812	-107.8796005249021	222.9215698242188	900.1279907226562	-8.350373268127241	263.2364501953125	830.6165771484375	-39.65719985961896	187.7454528808594	814.3343505859375	-20.33506011962873	244.6574249267578	743.4879150390625	12.70082569122331	230.525634765625	1454.763061523438	-461.0667724609372	215.8565368652344	1292.021484375	-562.1881713867184	281.0521545410156	1213.685302734375	-561.2546386718748	161.5997314453125	1213.501953125	-592.8793945312498	226.8111877441406	1111.311889648438	-602.5904541015623	170.8163909912109	1098.940063476563	-548.4059448242185	355.0494079589844	952.2755737304689	-567.7711181640623	391.9759826660156	900.3676757812501	-512.355285644531	356.3455200195312	868.5812988281251	-576.9716186523435	440.5448913574219	829.8863525390626	-553.3714599609373	216.37255859375	1043.980834960938	-137.2432861328123	89.10817718505859	1019.959594726563	-304.8656311035154	207.7647705078125	1038.53857421875	-482.5432434082029	190.6007232666016	898.4463500976562	-121.7690048217771	316.5244750976562	638.3287963867188	-156.1927642822264	364.0027465820312	672.7201538085938	-158.3865661621092	400.0557250976562	578.6878051757812	-195.4250335693358	339.0858154296875	561.7140502929688	-178.5532226562499	375.2527465820312	340.9232482910157	-180.156280517578	431.6292114257812	329.7649230957032	-199.3930206298827	440.2825622558594	246.1255950927735	-218.7176666259765	377.7000732421875	241.4141540527344	-203.8126068115234	363.0495300292969	38.33594131469733	-294.5488586425781	525.4786376953125	21.4703693389893	-209.6890869140625	579.6668701171875	42.91802215576178	-301.6776123046875	159.7606506347656	930.3361816406251	-484.906555175781	179.4048156738281	638.9893188476564	-473.5765686035155	131.9352111816406	672.1560668945314	-486.6112365722655	94.13536071777344	575.2467651367189	-461.1075439453124	156.4906311035156	562.7192993164064	-454.8719482421874	-23.26275634765625	335.0831909179689	-449.1404113769531	-81.60597991943359	352.837371826172	-452.3379211425781	-134.9234008789062	286.6442871093751	-433.7116394042968	-81.08516693115234	253.0272369384766	-425.3588256835937	-276.8052368164062	166.7284698486329	-360.3439025878906	-164.2695159912109	26.08088874816904	-412.124755859375	-128.6489868164062	30.76101303100593	-309.7215270996094	
45	0.176	347.9528503417969	1714.057861328125	-278.4424438476559	289.7968139648438	1657.478637695312	-204.4397583007809	289.5266418457031	1671.315307617188	-352.3486328124996	153.8476409912109	1495.7880859375	-292.1386108398434	77.874267578125	1296.602661132812	-235.9815673828122	81.34267425537109	1305.569580078125	-373.7651672363278	329.2599487304688	1331.671142578125	-292.5554504394528	225.7702331542969	1440.191650390625	-119.6014709472653	172.7998504638672	1279.386474609375	-39.67255783081026	228.8344879150391	1191.029052734375	-30.87303924560521	107.6426239013672	1198.93310546875	-35.93959426879857	147.5326538085938	1090.784790039062	-27.73466300964331	139.8007049560547	1087.62744140625	-107.911437988281	229.2798919677734	900.4819946289062	-8.861581802367963	269.5320129394531	830.9696044921875	-40.2121047973631	194.2050628662109	814.6640014648438	-20.80633354186994	250.8369140625	743.7463989257812	12.00986003875749	236.4069366455078	1455.460083007812	-460.2269592285153	221.1790618896484	1292.876708984375	-561.5307617187497	286.1970520019531	1214.603881835938	-560.825012207031	165.82421875	1214.669555664063	-591.8400878906248	231.5373382568359	1112.21728515625	-602.0309448242185	175.681396484375	1099.94384765625	-547.6117553710935	358.9607849121094	952.3892211914064	-568.1537475585935	395.9579772949219	900.0354614257814	-512.6303100585935	359.6942749023438	868.6374511718751	-577.535461425781	443.7303466796875	829.3613281250001	-554.6158447265623	221.9475555419922	1045.308837890625	-137.1866149902341	94.89371490478516	1020.473388671875	-304.9458007812498	214.6044158935547	1039.50146484375	-481.884826660156	196.4014129638672	899.5573120117188	-121.6908111572264	323.0704345703125	638.89599609375	-155.4840087890624	370.48046875	673.1068115234375	-158.1698455810545	406.0416259765625	579.0306396484375	-195.5556793212889	345.3081665039062	562.2579956054688	-177.8361968994139	378.9628295898438	341.1411437988282	-179.9778289794921	435.1287231445312	329.5206604003907	-199.3505249023437	442.9491577148438	245.6643066406251	-218.7936706542968	380.3379211425781	241.5555877685547	-203.8180694580078	363.4293823242188	38.61234283447272	-294.5581970214844	525.9052124023438	21.24015426635747	-209.6826324462891	580.261474609375	41.72100830078131	-301.9375610351562	166.0771026611328	930.5263061523439	-484.8044128417966	187.6751098632812	639.0042724609376	-473.9481506347655	140.0767669677734	671.8146972656251	-486.7708435058592	102.8462371826172	574.5496826171876	-461.5235290527343	165.3550109863281	562.4106445312501	-455.4818115234374	-16.15065956115723	336.0427551269532	-450.7910766601562	-74.16758728027344	354.2851867675782	-453.1019592285156	-128.4958190917969	288.689666748047	-434.6006164550781	-74.97597503662109	254.3367614746095	-426.9107666015624	-271.3111267089844	171.6689605712891	-361.1372070312499	-163.3433074951172	27.10116958618173	-412.2698059082031	-128.1209106445312	31.24376869201667	-309.7750549316406	
46	0.18	353.4681701660156	1714.810302734375	-277.3959350585934	295.5400085449219	1658.040771484375	-203.5114746093746	294.9862060546875	1671.96240234375	-351.4080810546871	159.6504211425781	1496.191284179688	-291.4226379394528	83.8240966796875	1297.001953125	-235.29035949707	87.19023895263672	1305.985107421875	-373.4080505371091	335.0398559570312	1332.282836914062	-292.0765991210935	231.6648254394531	1440.649169921875	-119.0158538818356	178.981689453125	1279.779418945312	-39.26173400878878	234.9759979248047	1191.382690429688	-30.74829864501927	113.9963531494141	1199.439086914062	-35.17705535888646	153.7932586669922	1091.098388671875	-27.58665275573706	145.8193511962891	1088.399780273438	-107.8870010375974	235.6898956298828	900.9624633789062	-9.153900146484174	275.9214172363281	831.4020385742188	-40.77792739868146	200.6372528076172	815.1666870117188	-21.27365303039533	257.2196044921875	744.068603515625	11.30116176605241	242.3691864013672	1456.312133789062	-459.3894042968747	226.6089477539062	1293.870361328125	-560.7819213867184	291.2562866210938	1215.415405273438	-561.614318847656	171.5265197753906	1215.52685546875	-590.9139404296873	236.3503875732422	1113.152099609375	-601.393371582031	180.4370269775391	1101.307250976563	-546.8211669921873	362.9791870117188	952.4496459960939	-568.5123291015623	399.8410034179688	899.7374267578126	-513.4581909179685	363.048095703125	868.7669677734376	-578.0906982421873	446.9026184082031	828.8543090820314	-555.9727783203123	227.7711791992188	1046.742065429688	-136.8868103027341	99.27157592773438	1021.066101074219	-305.6168518066404	223.6917724609375	1040.45654296875	-480.8912048339841	202.0007476806641	900.3928833007812	-121.5272216796873	329.2175903320312	639.2152709960938	-155.0059661865233	376.7160949707031	673.30224609375	-157.855987548828	412.0045471191406	579.375732421875	-195.5250549316405	351.1160583496094	562.4927978515625	-177.5534515380858	382.6338195800781	341.2203369140626	-179.837432861328	438.7664794921875	329.0612792968751	-199.2703704833984	445.5265502929688	245.2666015625001	-219.0309753417968	382.9195861816406	241.688217163086	-203.7990264892578	363.7060852050781	38.76888656616217	-294.6481628417969	526.4044799804688	21.40639114379887	-209.5102844238281	580.6397705078125	40.47404861450202	-302.7947082519531	172.5589752197266	930.7960815429689	-484.6423339843748	196.5963439941406	639.0933837890626	-474.0252685546874	148.6135406494141	671.6801147460939	-487.0490112304686	111.9599609375	573.8785400390626	-462.4486083984374	174.6025238037109	562.3032226562501	-456.4461669921874	-8.716306686401367	336.9432067871095	-451.8770446777343	-66.57614898681641	356.0139465332032	-453.8538208007812	-121.7445983886719	290.675018310547	-435.6400451660156	-68.63815307617188	255.7492675781251	-428.0133361816406	-265.646728515625	176.6914520263673	-361.8396301269531	-162.0216979980469	28.01455497741708	-412.0509033203125	-127.6222915649414	31.67211723327643	-310.0486145019531	
47	0.184	358.9482421875	1715.50830078125	-276.411956787109	301.0254211425781	1658.431640625	-202.5405273437496	300.1997985839844	1672.609008789062	-350.3816223144527	165.2013244628906	1496.5517578125	-290.6465148925778	89.66983032226562	1297.551879882812	-234.4354553222653	92.94635772705078	1306.57275390625	-373.1111145019528	340.94482421875	1333.058959960938	-291.4242858886716	237.4878997802734	1441.249145507812	-118.3272857666012	185.1987152099609	1280.161376953125	-38.61657333373995	241.1062316894531	1191.75048828125	-30.6745872497556	120.2168426513672	1199.843017578125	-34.94072341918919	159.9147796630859	1091.515747070312	-27.46499824523902	152.0733337402344	1089.15771484375	-107.7135620117185	242.00634765625	901.3925170898438	-9.541305541991987	282.42919921875	831.993408203125	-41.24376296997052	206.9329071044922	815.6653442382812	-21.87514305114728	263.6387939453125	744.4110107421875	10.58046436309831	248.2127227783203	1457.231689453125	-458.5080261230465	232.1285247802734	1294.684448242188	-560.1826171874997	296.4153442382812	1216.179077148438	-561.3004760742185	175.8763580322266	1216.64111328125	-589.7548828124998	240.4391784667969	1114.022827148438	-601.0238647460935	185.3810272216797	1102.314819335938	-545.932189941406	366.7878723144531	952.5368041992189	-568.9633789062498	403.626953125	899.4775390625001	-514.343566894531	366.2353515625	868.9376220703126	-578.8141479492185	449.9960327148438	828.3638916015626	-557.2547607421873	233.6897735595703	1048.248291015625	-136.769821166992	105.2749938964844	1021.303344726563	-305.3758850097654	231.3348388671875	1041.176025390625	-479.4378662109373	207.732177734375	901.1038208007812	-121.549964904785	334.9994812011719	639.3744506835938	-154.3286285400389	382.7765197753906	673.3973999023438	-157.3598632812499	417.4397277832031	579.46630859375	-195.5532989501952	356.6510925292969	562.6228637695312	-177.294952392578	386.3121032714844	341.3641967773438	-179.834732055664	442.3541870117188	328.8117370605469	-199.3005981445312	448.0819091796875	244.8830871582032	-219.7267761230468	385.6248168945312	241.6336059570313	-204.1161346435546	363.9428100585938	38.87652969360358	-294.8419494628906	526.6165161132812	21.37462234497075	-209.6719207763672	580.893798828125	39.3499488830567	-303.8533630371094	178.8838958740234	930.8884277343751	-484.4779663085935	205.0587310791016	639.1352539062501	-474.5547790527343	156.8619995117188	671.2839355468751	-487.0079040527342	121.1685562133789	573.2374877929689	-463.4000549316405	183.7411651611328	562.0285034179689	-456.0995483398436	-1.278337955474854	337.722381591797	-453.2968139648437	-58.99980545043945	357.4794006347657	-455.1250610351562	-114.6876678466797	292.8676757812501	-436.6111755371093	-61.94758224487305	257.2297668457032	-429.7619018554687	-258.8984985351562	181.4485473632813	-362.8416442871093	-160.7388763427734	29.01757812500009	-411.9547424316406	-127.0397109985352	32.25242996215827	-310.3022155761719	
